# xmcd
#
# Track frame offsets:
# 150
# 13782
# 28212
# 54630
# 73702
# 97490
# 128845
# 156465
# 186552
# 212452
# 226532
# 244694
# 277344
# 321041
#
# Disc length: 4523 seconds
#
#
# Revision: 0
# Processed by: cddbd v1.5.1PL0 Copyright (c) Steve Scherf et al.
# Submitted via: FreeRIP 2.70 
#
DISCID=d411a90e
DTITLE=Janis Joplin - Live at Winterland '68
DYEAR=1968
DGENRE=Blues
TTITLE0=Down on Me
TTITLE1=Flower in the Sun
TTITLE2=I Need a Man to Love
TTITLE3=Bye Bye Baby
TTITLE4=Easy Rider
TTITLE5=Combination of the Two
TTITLE6=Farewell Song
TTITLE7=Piece of My Heart
TTITLE8=Catch Me Daddy
TTITLE9=Magic of Love
TTITLE10=Summertime [Porgy and Bess]
TTITLE11=Light Is Faster Than Sound
TTITLE12=Ball and Chain
TTITLE13=Down on Me
EXTD=
EXTT0=
EXTT1=
EXTT2=
EXTT3=
EXTT4=
EXTT5=
EXTT6=
EXTT7=
EXTT8=
EXTT9=
EXTT10=
EXTT11=
EXTT12=
EXTT13=
PLAYORDER=
